<?xml version="1.0" standalone="no"?>
<!DOCTYPE svg PUBLIC "-//W3C//DTD SVG 20010904//EN"
 "http://www.w3.org/TR/2001/REC-SVG-20010904/DTD/svg10.dtd">
<svg version="1.0" xmlns="http://www.w3.org/2000/svg"
 width="512.000000pt" height="512.000000pt" viewBox="0 0 512.000000 512.000000"
 preserveAspectRatio="xMidYMid meet">
<metadata>
Created by potrace 1.14, written by Peter Selinger 2001-2017
</metadata>
<g transform="translate(0.000000,512.000000) scale(0.100000,-0.100000)"
fill="#000000" stroke="none">
<path d="M2335 4559 c4 -11 -3 -14 -30 -14 -20 1 -38 -1 -40 -5 -2 -4 -20 -6
-40 -5 -19 0 -35 -2 -35 -5 0 -5 -27 -10 -67 -13 -7 0 -13 -3 -13 -7 0 -4 -12
-7 -27 -7 -16 0 -36 -3 -45 -7 -9 -4 -22 -8 -30 -10 -7 -1 -19 -5 -25 -9 -13
-8 -48 -18 -70 -19 -7 -1 -14 -7 -17 -13 -2 -7 -16 -11 -30 -10 -14 2 -26 0
-26 -5 0 -4 -7 -11 -16 -14 -8 -3 -12 -2 -9 4 7 12 -57 -21 -66 -34 -4 -5 -11
-6 -17 -2 -6 3 -12 3 -14 -1 -1 -5 -21 -17 -43 -28 -22 -11 -61 -32 -87 -47
-27 -15 -48 -25 -48 -22 0 2 -6 0 -12 -6 -48 -40 -61 -49 -68 -45 -4 3 -10 -2
-14 -10 -3 -8 -10 -15 -16 -15 -6 0 -17 -6 -24 -12 -7 -7 -25 -22 -40 -33 -16
-11 -34 -26 -42 -33 -8 -7 -14 -11 -14 -8 0 3 -13 -7 -29 -22 -70 -66 -100
-90 -106 -84 -4 4 -5 3 -4 -3 5 -15 -33 -55 -45 -48 -6 3 -8 3 -4 -1 4 -5 -8
-23 -25 -40 -41 -42 -77 -88 -77 -99 0 -4 -4 -5 -10 -2 -5 3 -10 2 -10 -3 0
-8 -14 -27 -52 -72 -7 -8 -11 -16 -10 -19 2 -2 0 -7 -5 -10 -13 -8 -78 -105
-74 -110 3 -4 -20 -21 -31 -21 -3 0 -3 11 0 25 4 13 5 58 2 100 -3 41 -3 75 0
75 8 0 4 55 -4 68 -4 7 -4 12 1 12 10 0 9 52 -2 70 -6 9 -4 11 6 5 12 -8 12
-6 0 8 -7 9 -10 17 -5 17 5 0 10 11 10 25 1 14 -1 23 -5 21 -3 -2 -6 7 -6 20
0 13 3 24 7 24 4 0 7 10 6 23 -2 18 -8 23 -33 22 -16 0 -38 3 -49 8 -12 6 -16
5 -12 -1 7 -12 -49 -10 -60 1 -4 4 -15 -1 -24 -10 -12 -13 -14 -28 -10 -65 4
-26 3 -48 -1 -48 -4 0 -4 -13 1 -30 5 -17 5 -30 0 -30 -5 0 -5 -13 0 -30 5
-16 6 -30 2 -30 -4 0 -5 -132 -2 -292 l5 -293 50 0 c28 0 62 3 78 7 15 4 25 3
22 -2 -3 -4 6 -7 20 -6 14 0 25 3 25 6 0 3 9 6 19 6 11 0 17 -4 14 -9 -2 -4 8
-5 23 -1 21 5 25 4 20 -7 -4 -8 0 -5 8 5 9 11 16 15 16 10 0 -9 81 -9 123 0 9
2 15 0 12 -4 -3 -5 -1 -11 5 -15 5 -3 10 -1 10 4 0 14 53 10 62 -4 5 -6 8 -2
8 8 0 12 4 16 12 11 15 -9 205 -7 220 3 6 3 8 1 4 -5 -3 -6 -2 -13 4 -17 5 -3
10 -1 10 5 0 6 10 10 23 8 21 -3 22 1 23 63 1 37 4 74 7 83 4 9 2 16 -4 16 -6
0 -8 4 -5 9 3 5 -8 11 -24 13 -17 3 -30 0 -30 -5 0 -5 -8 -3 -17 4 -11 10 -14
10 -9 2 4 -7 2 -13 -3 -13 -6 0 -11 4 -11 8 0 4 -9 8 -20 8 -11 0 -20 -4 -20
-9 0 -5 -8 -3 -17 4 -11 10 -14 10 -9 2 4 -7 2 -13 -3 -13 -6 0 -11 4 -11 8 0
4 -9 8 -20 8 -11 0 -20 -4 -20 -9 0 -5 -8 -3 -17 4 -11 10 -14 10 -9 2 4 -7 2
-13 -3 -13 -6 0 -11 4 -11 8 0 4 -9 8 -20 8 -11 0 -20 -4 -20 -9 0 -5 -8 -3
-17 4 -11 10 -14 10 -9 2 4 -7 2 -13 -3 -13 -6 0 -11 4 -11 8 0 4 -9 8 -20 8
-11 0 -20 -4 -20 -9 0 -5 -8 -3 -17 4 -11 10 -14 10 -9 2 4 -7 2 -13 -3 -13
-6 0 -11 4 -11 8 0 4 -9 8 -20 8 -11 0 -20 -3 -20 -6 0 -4 -6 -7 -14 -7 -10 0
-7 13 12 48 15 26 30 45 35 42 4 -2 6 -1 5 4 -3 11 34 73 44 73 4 0 8 6 8 13
0 7 9 19 19 27 11 7 18 17 15 21 -2 5 5 13 17 19 11 7 19 14 16 16 -6 6 155
171 168 172 5 0 12 8 15 17 3 9 9 16 14 15 4 -1 21 12 37 29 16 17 32 31 35
31 3 0 12 6 19 13 32 28 50 42 55 43 19 3 39 18 34 25 -3 5 2 9 10 9 9 0 16 5
16 12 0 6 3 8 7 5 3 -4 22 5 40 19 19 14 40 27 48 28 7 1 19 7 26 13 27 21
123 62 132 56 6 -3 7 -1 4 4 -6 9 6 15 43 24 3 0 11 5 18 11 6 6 12 7 12 3 0
-4 7 -2 15 5 8 6 18 9 24 6 5 -3 11 -1 13 4 2 6 13 12 26 13 12 0 22 4 22 7 0
6 8 8 50 12 11 1 20 6 20 11 0 5 6 7 13 4 6 -2 27 2 45 10 18 7 37 11 42 8 6
-4 16 -3 23 2 6 4 19 9 27 10 8 2 26 5 40 7 14 3 34 7 45 9 11 3 26 -1 34 -7
11 -8 13 -8 7 2 -5 8 1 12 21 13 64 2 100 6 111 12 5 4 12 1 15 -5 3 -10 7
-10 20 1 10 8 17 9 17 3 0 -7 10 -8 30 -2 18 5 30 5 30 -1 0 -11 23 -7 32 6 5
7 8 7 8 0 0 -5 24 -10 53 -10 28 0 55 -4 59 -10 5 -6 8 -5 8 2 0 10 7 10 28 2
15 -6 41 -12 57 -13 17 0 36 -5 43 -9 7 -5 12 -4 12 3 0 6 5 8 10 5 6 -4 7
-12 3 -18 -5 -8 -2 -8 9 0 8 7 18 10 21 6 4 -3 17 -8 29 -9 28 -4 63 -12 63
-14 0 -2 38 -11 53 -12 6 -1 12 -5 12 -8 0 -4 12 -7 26 -7 15 0 30 -6 34 -13
4 -7 15 -10 24 -7 9 4 16 2 16 -3 0 -6 9 -10 19 -10 11 0 27 -7 35 -16 9 -8
16 -13 16 -9 0 3 13 -1 29 -9 16 -9 31 -12 35 -9 3 4 6 1 6 -6 0 -7 4 -10 9
-7 5 4 11 3 13 -1 4 -10 90 -53 101 -52 5 0 16 -8 25 -18 9 -10 28 -24 42 -31
29 -14 59 -33 76 -47 6 -5 22 -17 34 -25 12 -8 29 -21 36 -28 8 -7 14 -11 14
-9 0 8 75 -60 180 -165 59 -59 105 -110 102 -113 -3 -3 1 -5 8 -5 7 0 11 -3 7
-6 -3 -3 8 -19 24 -35 16 -15 29 -34 29 -41 0 -7 12 -24 25 -37 14 -12 22 -27
19 -32 -3 -5 1 -9 8 -9 7 0 21 -18 31 -40 10 -21 29 -55 43 -75 13 -20 22 -41
19 -46 -4 -5 -1 -9 4 -9 6 0 11 -7 11 -15 0 -8 5 -15 10 -15 6 0 10 -9 10 -20
0 -11 5 -20 11 -20 5 0 8 -4 4 -9 -3 -5 -1 -12 5 -16 6 -4 8 -11 5 -16 -4 -5
-1 -9 6 -9 7 0 9 -3 6 -7 -4 -3 -2 -12 4 -20 6 -7 8 -13 3 -13 -5 0 -3 -4 3
-8 7 -5 14 -20 15 -35 1 -15 6 -27 11 -27 4 0 5 -4 2 -10 -3 -5 -2 -10 3 -10
9 0 10 -7 13 -55 1 -14 6 -22 12 -18 6 4 8 -4 5 -20 -3 -15 -1 -28 3 -29 5 -2
11 -19 13 -38 3 -19 5 -35 6 -35 3 0 10 -42 13 -72 1 -18 5 -33 8 -33 3 0 5
-18 5 -40 -1 -22 3 -40 7 -40 5 0 4 -6 -2 -14 -7 -9 -8 -17 -2 -20 5 -3 8 -24
7 -46 -2 -22 1 -40 6 -40 5 0 4 -9 -2 -19 -6 -13 -7 -22 0 -26 6 -4 6 -15 0
-30 -6 -17 -6 -25 1 -25 6 0 8 -4 5 -9 -5 -8 -12 -81 -19 -203 -1 -16 -5 -28
-9 -28 -3 0 -5 -13 -3 -30 2 -16 1 -30 -3 -30 -7 0 -12 -30 -15 -77 0 -7 -5
-13 -11 -13 -6 0 -4 -5 4 -10 11 -7 11 -10 2 -10 -7 0 -10 -4 -7 -10 3 -5 2
-10 -4 -10 -5 0 -8 -11 -7 -25 2 -15 -1 -22 -7 -18 -6 4 -8 0 -4 -9 3 -9 3
-19 -1 -22 -3 -4 -7 -16 -9 -28 -2 -12 -10 -32 -18 -44 -8 -13 -16 -36 -17
-53 -1 -16 -7 -29 -12 -28 -6 1 -11 -5 -12 -13 0 -8 -2 -18 -4 -22 -1 -5 -3
-13 -4 -18 0 -6 -5 -14 -11 -18 -5 -4 -10 -11 -10 -17 -1 -17 -38 -85 -47 -85
-4 0 -5 -7 -2 -15 4 -8 2 -15 -3 -15 -4 0 -17 -17 -28 -37 -23 -44 -52 -89
-77 -117 -10 -10 -15 -23 -12 -28 3 -4 1 -8 -5 -8 -5 0 -19 -16 -31 -35 -12
-19 -26 -33 -31 -29 -5 3 -9 -1 -9 -9 0 -18 -178 -203 -191 -200 -5 2 -9 -1
-9 -6 0 -6 -26 -31 -57 -56 -32 -25 -70 -57 -86 -70 -15 -14 -34 -25 -42 -25
-8 0 -19 -8 -24 -18 -6 -9 -11 -13 -11 -8 0 5 -9 1 -20 -9 -11 -10 -20 -15
-20 -11 0 4 -10 -2 -22 -13 -11 -11 -25 -18 -30 -15 -4 3 -8 0 -8 -5 0 -6 -7
-11 -15 -11 -8 0 -15 -4 -15 -10 0 -5 -3 -9 -7 -9 -19 4 -72 -24 -66 -34 3 -5
1 -7 -5 -3 -6 3 -13 3 -16 -2 -2 -4 -28 -14 -55 -22 -28 -7 -51 -17 -51 -22 0
-4 -5 -8 -11 -8 -5 0 -7 6 -3 13 4 6 -3 2 -15 -11 -22 -23 -37 -30 -26 -12 9
15 -1 12 -18 -5 -8 -8 -29 -16 -46 -17 -17 -1 -31 -5 -31 -8 0 -5 -22 -10 -62
-13 -10 -1 -18 -4 -18 -7 0 -7 -4 -8 -57 -11 -18 -1 -33 -7 -33 -13 0 -6 -5
-4 -10 4 -7 11 -10 12 -10 2 0 -8 -6 -12 -12 -9 -7 2 -21 0 -30 -5 -13 -6 -18
-5 -18 4 0 10 -3 10 -9 -1 -5 -8 -16 -11 -25 -8 -9 4 -16 2 -16 -3 0 -5 -13
-5 -30 0 -21 6 -28 5 -24 -2 5 -8 -3 -9 -24 -5 -22 5 -32 3 -32 -6 0 -8 -3 -8
-9 2 -6 10 -10 10 -16 1 -6 -9 -9 -9 -15 0 -6 9 -14 8 -36 -4 -16 -8 -23 -15
-15 -16 11 0 11 -3 1 -15 -10 -12 -10 -15 0 -15 10 0 10 -3 0 -15 -9 -11 -9
-15 -1 -15 8 0 9 -6 2 -18 -6 -11 -6 -24 0 -35 7 -12 6 -17 -3 -17 -8 0 -7 -6
5 -17 16 -16 67 -27 67 -14 0 3 11 6 25 6 14 0 25 -4 25 -9 0 -5 6 -4 13 1 6
5 27 9 45 8 17 0 32 3 32 8 0 5 7 4 15 -3 11 -9 15 -9 15 -1 0 7 4 10 9 7 5
-4 21 -2 35 4 18 6 26 6 26 -1 0 -6 6 -7 13 -2 14 9 43 15 75 17 12 1 22 4 22
7 0 3 6 6 13 6 16 1 99 19 105 23 1 2 7 4 12 5 6 1 12 4 15 5 3 1 10 4 15 5 6
1 13 4 18 5 4 1 11 2 16 1 4 -1 13 2 20 7 6 5 19 8 29 7 9 -2 15 0 12 4 -4 8
73 36 88 33 4 -1 7 6 8 16 0 9 3 12 5 5 4 -9 15 -6 40 8 20 11 40 17 45 14 5
-4 12 1 15 9 3 9 10 13 15 10 5 -3 9 0 9 6 0 7 6 10 14 7 8 -3 17 1 20 9 3 8
12 14 21 14 8 0 15 4 15 10 0 5 3 10 8 9 15 -2 52 14 52 23 0 5 14 14 30 19
17 6 30 15 30 20 0 5 7 9 15 9 8 0 15 5 15 10 0 6 5 10 10 10 6 0 16 5 23 10
29 25 57 46 78 60 12 8 29 23 38 33 8 9 21 17 29 17 7 0 10 5 7 10 -3 6 -2 10
4 10 5 0 35 25 66 55 31 30 60 55 65 55 6 0 9 4 7 8 -1 5 17 28 41 52 23 24
42 49 42 57 0 8 4 12 9 8 5 -3 12 4 16 15 4 11 10 18 15 15 4 -3 10 3 14 13 6
20 72 112 77 109 2 -1 3 0 2 1 -1 2 18 35 42 72 24 37 41 71 38 74 -4 3 -2 6
4 6 6 0 22 27 36 60 15 33 31 60 36 60 5 0 7 10 3 22 -3 13 -1 19 5 15 6 -4
17 18 27 53 9 33 21 60 26 60 5 0 7 9 5 20 -2 11 0 20 4 20 5 0 12 16 15 35 5
24 11 33 19 28 8 -4 8 -2 -1 9 -8 10 -9 19 -3 22 5 4 8 15 6 26 -2 12 0 18 4
15 5 -2 11 4 14 15 3 11 1 18 -4 14 -5 -3 -6 2 -3 10 3 9 9 14 13 12 3 -2 7 8
7 22 1 15 4 38 7 52 3 14 6 35 6 48 1 16 5 21 14 16 9 -6 9 -5 0 8 -7 8 -10
18 -6 22 6 6 8 21 14 108 1 16 6 28 12 28 5 0 3 8 -4 17 -12 14 -12 15 -1 9
11 -7 12 -4 3 11 -6 11 -7 23 -4 27 10 10 11 66 1 66 -5 0 -6 6 -1 13 11 18
10 87 -2 87 -7 0 -7 3 0 8 11 8 16 42 6 42 -3 0 -6 19 -7 43 -2 91 -9 152 -19
159 -6 5 -5 15 3 29 8 11 9 18 3 14 -10 -5 -16 21 -12 48 0 4 -4 7 -10 7 -8 0
-7 6 2 17 10 11 10 14 2 9 -9 -5 -13 0 -15 16 -2 42 -3 47 -11 54 -4 4 -7 20
-7 36 0 15 -5 28 -11 28 -6 0 -9 7 -6 15 4 8 2 17 -4 20 -5 4 -7 10 -4 15 3 5
0 12 -6 15 -5 4 -8 13 -5 21 3 8 1 14 -5 14 -6 0 -7 5 -4 10 3 6 2 10 -2 10
-5 0 -9 10 -10 22 -1 11 -7 24 -13 28 -7 4 -11 9 -10 11 5 11 -13 59 -22 59
-6 0 -8 6 -5 14 3 8 2 16 -3 18 -4 2 -10 12 -12 23 -1 11 -12 28 -22 38 -10 9
-16 17 -12 17 3 0 0 14 -9 30 -9 17 -20 30 -25 30 -5 0 -7 7 -4 15 4 8 1 15
-6 15 -6 0 -8 5 -5 10 3 6 1 10 -5 10 -11 0 -35 48 -31 63 1 5 -3 6 -8 3 -5
-4 -12 2 -16 13 -3 10 -14 29 -25 41 -11 12 -17 27 -13 33 3 6 1 7 -5 3 -6 -4
-16 4 -23 16 -7 13 -19 28 -28 35 -9 7 -13 13 -9 13 12 0 -235 260 -247 260
-3 0 -13 8 -23 18 -35 33 -72 62 -72 56 0 -3 -9 4 -20 17 -10 13 -19 20 -20
15 0 -5 -9 1 -20 14 -11 13 -20 19 -20 14 0 -5 -4 -4 -8 2 -4 5 -24 20 -44 33
-21 12 -38 27 -38 32 0 6 -4 8 -9 4 -5 -3 -17 2 -25 11 -9 9 -23 17 -32 18 -9
1 -20 9 -25 17 -5 8 -9 11 -9 6 0 -4 -10 -1 -23 8 -13 8 -27 12 -30 8 -4 -3
-7 -1 -7 5 0 10 -38 28 -52 24 -5 -1 -8 3 -8 8 0 6 -9 10 -20 10 -11 0 -20 3
-20 8 0 7 -63 32 -87 34 -7 1 -13 5 -13 9 0 5 -47 18 -77 20 -5 1 -17 6 -28
12 -22 12 -38 17 -72 20 -13 1 -23 4 -23 7 0 3 -15 7 -32 8 -18 2 -34 7 -36
12 -2 5 -10 6 -18 3 -8 -3 -14 0 -14 6 0 9 -5 9 -20 1 -12 -7 -20 -7 -20 -1 0
5 -9 8 -20 6 -11 -2 -20 -1 -20 3 0 6 -28 9 -112 13 -10 0 -20 4 -23 10 -4 5
-13 5 -25 -1 -13 -7 -20 -6 -23 3 -4 9 -6 9 -6 -1 -1 -7 -6 -10 -12 -6 -18 11
-53 11 -61 -1 -5 -7 -8 -7 -8 0 0 6 -18 10 -42 9 -24 -2 -43 -3 -43 -4 0 -1
-12 -3 -27 -4 -16 -1 -28 2 -28 7 0 4 -8 3 -18 -2 -13 -7 -23 -6 -32 2 -8 7
-11 8 -7 1 8 -15 -43 -16 -61 -1 -9 7 -11 6 -7 -4z"/>
<path d="M1967 3064 c-3 -3 -34 -8 -69 -10 -63 -3 -79 -6 -108 -17 -8 -3 -36
-13 -62 -22 -26 -10 -45 -22 -42 -27 3 -4 2 -8 -3 -7 -24 4 -42 -5 -76 -37
-20 -20 -37 -32 -37 -28 -1 5 -8 -3 -16 -18 -8 -16 -19 -28 -24 -28 -9 0 -55
-81 -51 -88 1 -2 -6 -10 -16 -18 -10 -7 -15 -14 -11 -14 4 0 0 -16 -8 -35 -8
-19 -11 -35 -8 -35 4 0 -1 -9 -12 -21 -14 -16 -15 -22 -5 -28 10 -6 10 -14 3
-28 -12 -21 -11 -41 1 -60 5 -7 4 -13 -2 -13 -10 0 -9 -33 4 -105 5 -34 12
-67 15 -75 1 -3 2 -8 1 -12 0 -5 4 -8 11 -8 6 0 8 -3 5 -7 -4 -3 0 -17 8 -30
9 -13 12 -23 8 -23 -4 0 2 -7 13 -15 10 -8 15 -15 11 -15 -14 0 115 -133 134
-138 8 -2 17 -9 21 -15 4 -7 11 -12 15 -13 4 0 26 -9 48 -19 22 -10 43 -18 48
-17 4 1 7 -3 7 -9 0 -5 5 -7 10 -4 6 4 17 1 25 -5 12 -10 15 -10 15 1 0 11 2
11 10 -1 5 -8 10 -11 10 -7 0 4 10 3 21 -4 16 -8 20 -8 14 1 -6 9 -3 9 13 1
10 -6 29 -9 41 -6 11 2 23 -1 27 -6 3 -6 10 -6 17 -1 7 5 33 8 59 8 25 -1 44
2 42 6 -2 4 4 7 13 8 55 2 71 6 65 14 -3 5 2 7 11 3 9 -3 17 -2 19 3 2 5 10
10 18 12 8 2 21 10 28 18 12 13 13 13 6 0 -6 -11 -2 -10 13 3 11 9 23 14 26
10 4 -3 7 1 7 11 0 9 4 15 8 12 12 -7 98 75 107 103 5 16 4 21 -4 17 -8 -5 -8
0 -2 16 4 13 6 29 4 36 -3 7 1 20 9 29 7 9 8 14 2 10 -8 -5 -12 4 -12 28 0 19
4 38 9 41 5 3 6 11 2 17 -11 17 -13 88 -2 81 5 -3 6 2 3 10 -3 9 -11 13 -18 9
-6 -3 -6 -1 2 8 14 16 16 33 2 24 -5 -3 -10 -1 -10 4 0 6 4 11 9 11 5 0 7 8 4
19 -3 14 -13 18 -41 17 -20 -1 -45 2 -56 7 -11 6 -16 5 -12 -1 7 -11 -136 -8
-155 3 -7 5 -10 4 -6 -2 8 -12 -134 -10 -154 2 -8 5 -10 4 -5 -4 5 -8 -3 -10
-28 -7 -33 4 -36 3 -30 -19 3 -12 1 -26 -5 -29 -6 -4 -7 -15 -2 -29 11 -28 9
-77 -3 -96 -6 -10 -5 -12 2 -7 7 4 12 4 12 -1 0 -4 34 -8 75 -9 41 0 75 4 75
9 0 6 5 5 13 0 6 -6 31 -9 55 -8 24 1 43 -3 43 -9 1 -6 3 -34 3 -63 1 -49 0
-53 -31 -70 -18 -10 -33 -21 -33 -25 0 -4 -7 -5 -15 -2 -8 4 -15 2 -15 -3 0
-5 -6 -10 -12 -11 -17 -1 -70 -12 -85 -17 -6 -2 -14 1 -17 8 -3 9 -6 9 -13 0
-5 -7 -14 -9 -22 -3 -8 4 -20 6 -28 3 -7 -3 -13 0 -13 6 0 6 -7 8 -15 5 -8 -3
-20 -2 -27 2 -7 5 -20 9 -28 11 -8 1 -20 10 -27 19 -7 10 -16 15 -19 11 -3 -3
-20 11 -37 31 -18 20 -35 39 -39 40 -5 2 -8 10 -8 19 0 8 -7 21 -16 30 -8 9
-13 22 -10 29 3 8 1 14 -4 14 -6 0 -10 10 -10 23 0 13 -5 28 -12 35 -7 7 -8
12 -3 12 6 0 10 24 9 52 -1 29 5 70 12 91 7 20 10 37 7 37 -3 0 1 8 9 18 9 9
19 27 23 40 3 12 10 20 14 18 4 -3 16 9 26 25 11 16 25 29 31 29 7 0 14 7 18
15 3 8 14 15 25 15 11 0 23 5 26 10 4 6 11 8 16 5 5 -4 9 -2 9 3 0 5 16 8 35
7 19 0 35 2 35 5 0 3 18 6 40 6 22 -1 40 -4 40 -8 0 -4 9 -5 20 -3 11 2 20 -1
20 -6 0 -6 5 -7 10 -4 6 3 10 1 10 -4 0 -6 9 -11 20 -11 11 0 20 -4 20 -10 0
-5 4 -10 10 -10 16 0 60 -42 54 -52 -3 -4 2 -8 10 -8 9 0 16 -4 16 -10 0 -12
135 57 164 84 15 13 17 20 8 23 -6 3 -10 9 -6 14 3 5 -3 9 -12 9 -10 0 -14 3
-11 6 8 8 -104 114 -120 114 -7 0 -13 5 -13 12 0 6 -3 8 -6 5 -4 -3 -16 0 -28
8 -11 8 -30 15 -41 15 -12 0 -25 4 -31 10 -5 5 -35 11 -64 12 -30 2 -58 6 -61
11 -3 4 -8 4 -12 1z"/>
<path d="M2573 3041 c-4 -3 -8 -15 -7 -26 0 -11 -5 -26 -10 -34 -8 -11 -8 -13
1 -8 15 9 14 -32 -1 -52 -8 -11 -8 -13 1 -8 15 9 14 -32 -1 -52 -8 -11 -8 -13
1 -8 15 9 14 -32 -1 -52 -8 -11 -8 -13 1 -8 15 9 14 -32 -1 -52 -8 -11 -8 -13
1 -8 15 9 14 -32 -1 -52 -8 -11 -8 -13 1 -8 15 9 14 -32 -1 -52 -8 -11 -8 -13
0 -8 7 4 12 -3 12 -18 0 -14 -4 -28 -9 -31 -13 -7 2 -35 15 -27 8 4 8 2 -1 -7
-6 -7 -9 -19 -6 -28 5 -11 3 -13 -7 -7 -10 6 -11 4 -4 -6 13 -22 14 -43 1 -51
-8 -5 -8 -8 -1 -8 6 0 12 -11 12 -25 0 -14 -6 -25 -12 -25 -8 0 -8 -2 0 -8 6
-4 11 -16 11 -27 0 -11 -5 -23 -11 -27 -8 -6 -8 -8 0 -8 6 0 12 -11 12 -25 0
-14 -6 -25 -12 -25 -8 0 -8 -2 0 -8 14 -9 14 -45 0 -54 -8 -6 -8 -8 0 -8 6 0
12 -11 12 -25 0 -14 -6 -25 -12 -25 -8 0 -8 -2 0 -8 6 -4 11 -25 11 -47 1 -60
2 -67 13 -60 6 3 10 2 10 -4 0 -6 11 -7 28 -2 15 5 37 5 48 1 11 -5 27 -4 34
0 8 5 22 4 32 -1 12 -6 18 -6 18 1 0 5 3 9 8 9 21 -4 27 5 27 41 1 22 -4 40
-10 40 -6 0 -7 3 0 8 13 9 13 225 0 234 -7 5 -7 8 0 8 6 0 10 72 10 195 0 123
-4 195 -10 195 -7 0 -7 3 0 8 13 9 13 263 1 277 -5 6 -24 11 -43 11 -18 0 -33
-5 -33 -11 0 -7 -3 -7 -8 0 -4 6 -20 11 -37 11 -16 0 -33 -5 -37 -11 -5 -7 -8
-6 -8 1 0 11 -24 15 -37 5z"/>
<path d="M3000 3037 c0 -4 -5 -5 -12 -1 -6 4 -8 3 -4 -4 3 -6 2 -13 -4 -17 -6
-4 -7 -11 -3 -18 10 -17 10 -239 0 -261 -6 -13 -6 -16 2 -12 12 8 11 -21 -2
-40 -3 -6 -4 -14 0 -17 10 -10 10 -230 0 -251 -6 -13 -6 -16 2 -12 12 8 11
-21 -2 -40 -3 -6 -4 -14 0 -17 8 -9 10 -236 1 -250 -4 -6 -2 -17 4 -24 7 -9 7
-18 -3 -30 -8 -9 -9 -14 -3 -10 7 4 15 0 18 -9 3 -8 11 -12 17 -8 17 10 79 11
79 1 0 -5 5 -5 11 -2 16 10 69 12 69 3 0 -4 8 -3 18 3 19 12 25 59 8 59 -8 0
-8 3 -1 8 6 4 11 21 11 37 0 17 -5 33 -11 37 -7 5 -7 8 0 8 14 0 14 70 0 70
-7 0 -7 3 0 8 6 4 11 21 11 37 0 17 -5 33 -11 37 -7 5 -7 8 1 8 6 0 10 23 9
59 -1 53 1 58 19 57 12 -1 24 -5 28 -11 5 -7 8 -6 8 0 0 13 149 13 169 1 10
-6 12 -5 7 2 -10 16 16 15 33 0 8 -7 11 -8 8 -2 -7 13 100 13 121 1 6 -5 12
-4 12 1 0 5 20 9 44 7 l43 -1 -2 90 c-2 114 0 107 -30 102 -15 -3 -25 0 -25 7
0 8 -3 8 -8 2 -8 -11 -41 -13 -58 -2 -6 3 -14 3 -18 -1 -12 -11 -66 -10 -66 2
0 7 -3 8 -8 1 -8 -12 -22 -13 -38 -3 -6 4 -14 4 -18 1 -11 -11 -56 -11 -56 0
0 5 -6 4 -14 -2 -10 -9 -16 -9 -21 -1 -4 6 -12 7 -18 2 -7 -4 -34 -8 -62 -7
l-50 0 0 40 c1 22 -4 43 -10 47 -7 5 -6 8 1 8 7 0 10 19 9 49 -1 27 1 55 6 62
7 12 71 15 89 4 6 -4 10 -1 10 6 0 8 5 7 17 -2 11 -10 14 -10 9 -1 -4 6 -2 12
3 12 6 0 11 -4 11 -9 0 -6 12 -6 30 -1 20 6 30 5 30 -2 0 -7 4 -7 13 1 10 8
17 7 25 -1 9 -9 12 -9 12 2 0 13 2 13 10 0 6 -10 10 -11 10 -3 0 9 7 10 25 3
16 -6 25 -6 25 1 0 6 7 6 20 -1 15 -8 20 -8 20 1 0 8 5 7 17 -2 13 -11 17 -11
20 -2 3 9 10 10 24 3 14 -8 19 -7 19 2 0 9 3 9 10 -2 7 -11 10 -12 10 -2 0 9
7 11 21 7 16 -5 20 -3 18 12 -2 10 0 24 4 31 5 6 5 12 0 12 -4 0 -8 18 -9 39
0 22 4 37 9 34 5 -3 4 3 -1 13 -10 19 -12 26 -12 42 0 4 -9 8 -20 8 -11 0 -20
-5 -20 -11 0 -7 -3 -7 -8 0 -4 6 -16 11 -27 11 -11 0 -23 -5 -27 -11 -5 -7 -8
-7 -8 0 0 12 -248 13 -267 2 -7 -5 -13 -4 -13 1 0 12 -43 10 -52 -3 -5 -6 -8
-6 -8 2 0 12 -30 10 -50 -2 -6 -3 -10 -2 -10 2 0 5 -11 9 -25 9 -14 0 -25 -5
-25 -10 0 -7 -3 -8 -8 -1 -8 12 -132 14 -132 2z"/>
<path d="M570 2555 c-27 -15 -29 -23 -8 -36 9 -6 10 -9 1 -9 -9 0 -10 -7 -3
-25 7 -17 6 -25 -1 -25 -7 0 -8 -5 -2 -12 5 -7 9 -29 8 -50 0 -20 3 -34 7 -32
3 2 9 0 13 -6 4 -7 12 -7 26 0 14 8 19 7 19 -1 0 -8 4 -8 13 -2 6 6 22 9 35 8
12 -1 22 3 22 9 0 6 5 4 10 -4 7 -11 10 -11 10 -2 0 7 4 11 8 8 4 -2 14 -1 22
5 8 5 11 9 5 9 -6 0 -10 25 -9 57 0 32 -4 64 -9 71 -6 8 -6 12 1 12 6 0 9 6 6
14 -7 17 -42 28 -50 15 -4 -6 -11 -6 -19 1 -10 8 -15 8 -20 0 -5 -8 -10 -8
-20 0 -10 8 -15 8 -20 -1 -5 -7 -10 -8 -14 -1 -4 7 -15 6 -31 -3z"/>
<path d="M760 2202 c0 -6 -7 -9 -15 -6 -9 4 -15 0 -15 -7 0 -11 -3 -11 -10 1
-5 8 -10 10 -10 4 0 -6 -17 -12 -37 -13 -21 -1 -44 -3 -50 -3 -18 -2 -20 -30
-8 -83 8 -35 13 -65 14 -83 1 -17 43 -32 57 -20 7 5 23 11 35 14 39 8 54 12
57 14 1 2 7 4 12 5 6 1 13 4 18 5 4 1 10 2 14 1 4 0 0 11 -7 26 -8 15 -12 30
-9 35 3 4 1 8 -4 8 -5 0 -9 6 -9 13 -1 30 -15 83 -24 92 -6 5 -9 5 -9 -3z"/>
<path d="M850 1861 c0 -5 -10 -11 -22 -14 -37 -8 -92 -31 -106 -44 -13 -13 0
-63 16 -63 5 0 8 -11 7 -25 -2 -16 2 -25 11 -25 12 0 19 -24 16 -51 -2 -13 44
-3 62 13 10 10 23 15 28 12 4 -3 8 -1 8 4 0 8 13 15 50 26 30 9 34 32 11 60
-7 9 -10 16 -5 16 5 0 1 5 -8 11 -11 6 -15 16 -11 26 4 11 3 14 -5 9 -8 -4
-12 0 -12 11 0 19 -18 43 -32 43 -4 0 -8 -4 -8 -9z"/>
<path d="M1020 1548 c0 -5 -4 -6 -10 -3 -5 3 -10 1 -10 -6 0 -7 -3 -10 -6 -6
-6 6 -11 3 -58 -38 -16 -14 -36 -23 -44 -20 -12 4 -12 2 -4 -8 7 -8 10 -16 7
-19 -3 -3 4 -13 15 -23 11 -10 20 -23 20 -29 0 -7 9 -18 20 -26 11 -8 20 -18
20 -23 0 -5 7 -15 15 -24 14 -14 18 -13 38 3 11 11 27 24 35 29 7 6 21 18 30
28 9 9 22 17 30 17 7 0 11 4 8 9 -4 5 -1 11 5 13 6 2 -5 21 -25 43 -19 22 -36
46 -36 53 0 6 -4 12 -10 12 -5 0 -10 6 -10 13 0 8 -7 14 -15 14 -8 0 -15 -4
-15 -9z"/>
<path d="M1188 1229 c-32 -32 -58 -61 -58 -64 0 -11 88 -93 94 -88 3 4 6 -1 6
-9 0 -9 8 -18 18 -20 20 -6 56 15 45 25 -3 4 2 7 12 7 10 0 16 3 12 6 -3 3 4
17 16 30 42 45 57 74 37 74 -5 0 -28 18 -50 40 -22 22 -45 40 -51 40 -6 0 -8
4 -5 8 3 5 0 9 -7 9 -7 -1 -38 -27 -69 -58z"/>
<path d="M1512 1064 c7 -11 -17 -35 -27 -26 -4 4 -5 3 -4 -3 4 -14 -11 -55
-20 -55 -3 0 -15 -14 -25 -32 -21 -34 -23 -28 32 -67 11 -8 23 -13 26 -12 4 1
13 -4 21 -11 49 -44 67 -46 83 -8 7 16 24 46 38 66 31 46 28 62 -16 85 -19 11
-40 26 -47 35 -6 8 -17 16 -25 18 -7 1 -19 6 -27 10 -8 5 -12 5 -9 0z"/>
<path d="M1817 883 c4 -10 2 -14 -4 -10 -6 4 -10 -3 -9 -16 1 -12 -7 -30 -18
-40 -10 -9 -16 -20 -13 -24 4 -3 1 -13 -5 -21 -7 -8 -13 -20 -14 -27 -2 -14
69 -55 97 -55 10 0 19 -4 19 -9 0 -14 54 -21 62 -8 4 7 8 22 8 35 0 13 4 21 8
18 7 -4 11 10 14 52 1 6 5 12 10 12 12 0 10 48 -4 56 -7 5 -8 3 -3 -5 4 -8 -4
-6 -18 4 -15 9 -31 14 -37 10 -5 -3 -10 -1 -10 4 0 6 -7 11 -15 11 -8 0 -15 5
-15 12 0 6 -3 9 -6 5 -3 -3 -17 -2 -30 3 -19 8 -22 6 -17 -7z"/>
<path d="M2153 781 c-5 -3 -9 -16 -10 -28 0 -13 -2 -24 -3 -25 -1 -2 -4 -12
-6 -23 -8 -35 -12 -50 -14 -50 -1 0 -3 -12 -4 -27 -2 -20 1 -25 12 -20 9 3 13
1 10 -4 -4 -5 8 -10 25 -11 58 -4 117 -12 126 -18 5 -3 12 -1 16 5 3 5 1 10
-6 10 -7 0 -8 4 -2 13 5 6 9 19 8 27 0 8 6 21 15 28 8 8 9 11 3 7 -9 -4 -12 4
-10 27 2 18 6 38 9 43 10 17 -15 30 -54 30 -21 -1 -38 3 -38 9 0 5 -3 7 -6 4
-3 -4 -18 -3 -33 2 -16 4 -33 5 -38 1z"/>
</g>
</svg>
